<?xml version="1.0" encoding="UTF-8"?>
<svg version="1.1" xmlns="http://www.w3.org/2000/svg" width="512" height="512">
<path d="M0 0 C49.83 0 99.66 0 151 0 C151 49.83 151 99.66 151 151 C146.8637204 147.45461748 142.976757 144.10132731 139.16625977 140.27978516 C138.2858754 139.39932526 137.40549103 138.51886536 136.49842834 137.61172485 C135.57211105 136.68024628 134.64579376 135.7487677 133.69140625 134.7890625 C132.71514014 133.81092733 131.73865006 132.83301565 130.76194763 131.85531616 C128.21327423 129.30285601 125.66762042 126.74740552 123.12261963 124.19128418 C120.51653382 121.57490086 117.90755379 118.96140697 115.29882812 116.34765625 C110.19640882 111.23456754 105.09718143 106.11831088 100 101 C96.1402227 102.8158486 93.13735361 105.27968892 89.9375 108.0625 C88.77018032 109.06455869 87.60220174 110.06585029 86.43359375 111.06640625 C85.85335449 111.56414551 85.27311523 112.06188477 84.67529297 112.57470703 C82.3120876 114.58525686 79.90856471 116.54414643 77.5 118.5 C73.46016863 121.78823483 69.46907935 125.12721426 65.5 128.5 C60.65179875 132.61983299 55.75154155 136.66795964 50.81640625 140.68359375 C47.66214808 143.27787266 44.5479702 145.91606265 41.4375 148.5625 C36.88715684 152.43241802 32.27167165 156.19959897 27.58984375 159.91015625 C23.96869031 162.83220315 20.43045431 165.84821486 16.88671875 168.86328125 C13.45428391 171.78004513 9.99407185 174.65693426 6.5 177.5 C2.46016863 180.78823483 -1.53092065 184.12721426 -5.5 187.5 C-10.34820125 191.61983299 -15.24845845 195.66795964 -20.18359375 199.68359375 C-23.33785382 202.27787422 -26.45196195 204.91614017 -29.5625 207.5625 C-34.14631856 211.45908134 -38.78505252 215.26997585 -43.5 219.0078125 C-48.038497 222.6244273 -52.51544395 226.31686651 -57 230 C-59.88793985 228.69149364 -61.95350175 227.29553519 -64.1887207 225.05419922 C-64.78646805 224.4595285 -65.38421539 223.86485779 -66.00007629 223.25216675 C-66.63555893 222.6094986 -67.27104156 221.96683044 -67.92578125 221.3046875 C-68.59159714 220.63841339 -69.25741302 219.97213928 -69.94340515 219.28567505 C-71.35193182 217.87412939 -72.75802933 216.46015619 -74.16186523 215.04394531 C-76.28911149 212.89858764 -78.42410443 210.76119566 -80.56054688 208.625 C-81.93276149 207.24786382 -83.30452063 205.8702736 -84.67578125 204.4921875 C-85.30519119 203.86166473 -85.93460114 203.23114197 -86.58308411 202.58151245 C-89.58883972 199.54417555 -92.49532332 196.46608419 -95.28125 193.2253418 C-99.89511963 187.89376627 -104.86565878 182.91002561 -109.82421875 177.90234375 C-110.58489623 177.13368075 -110.58489623 177.13368075 -111.36094093 176.34948921 C-114.03377491 173.65017158 -116.71010379 170.95437037 -119.38891602 168.26098633 C-121.60039297 166.03606076 -123.80432752 163.80404088 -126.00219727 161.56567383 C-128.67063352 158.84810622 -131.3509649 156.1428458 -134.04050636 153.4461689 C-135.06025658 152.41969481 -136.07573819 151.38896178 -137.08682823 150.35395622 C-138.49364879 148.91571125 -139.9176999 147.49438084 -141.3425293 146.07397461 C-142.14748337 145.26093369 -142.95243744 144.44789276 -143.78178406 143.61021423 C-145.83789331 141.75098828 -145.83789331 141.75098828 -148.1678009 142.17184448 C-150.32375075 143.14633561 -152.13500525 144.292377 -154.0625 145.66796875 C-154.84906982 146.22436035 -155.63563965 146.78075195 -156.44604492 147.35400391 C-157.2888501 147.95905762 -158.13165527 148.56411133 -159 149.1875 C-160.80846979 150.47022686 -162.61706713 151.75277393 -164.42578125 153.03515625 C-165.35084473 153.69402832 -166.2759082 154.35290039 -167.22900391 155.03173828 C-171.53119891 158.0876234 -175.86023042 161.10478557 -180.1875 164.125 C-186.9934592 168.88587398 -193.78505137 173.66662543 -200.56713867 178.46142578 C-206.8834604 182.92426103 -213.22049583 187.3572322 -219.55859375 191.7890625 C-224.88179435 195.51284227 -230.19544705 199.24971114 -235.5 203 C-242.50409761 207.95185729 -249.52889252 212.87363783 -256.55859375 217.7890625 C-261.88179435 221.51284227 -267.19544705 225.24971114 -272.5 229 C-279.49046499 233.9422191 -286.49895062 238.85825183 -293.51904297 243.75830078 C-297.68668955 246.66972167 -301.84272927 249.59540602 -305.9765625 252.5546875 C-306.7603125 253.11414063 -307.5440625 253.67359375 -308.3515625 254.25 C-309.83616239 255.31115731 -311.31806515 256.37610106 -312.796875 257.4453125 C-317.77734375 261 -317.77734375 261 -320 261 C-321.6714083 258.78383641 -323.22016261 256.56200172 -324.75 254.25 C-325.74512683 252.77408718 -326.74126821 251.29885804 -327.73828125 249.82421875 C-328.26760254 249.03837402 -328.79692383 248.2525293 -329.34228516 247.44287109 C-332.16349722 243.28542664 -335.05112363 239.17484899 -337.9375 235.0625 C-338.52354004 234.22605957 -339.10958008 233.38961914 -339.71337891 232.52783203 C-344.15581153 226.19110214 -348.61585062 219.86682503 -353.09350586 213.55493164 C-354.40162852 211.707396 -355.70106525 209.8539998 -357 208 C-357.4031543 207.43893555 -357.80630859 206.87787109 -358.22167969 206.29980469 C-361 202.33808063 -361 202.33808063 -361 199 C-359.20605469 197.4128418 -359.20605469 197.4128418 -356.671875 195.69921875 C-355.73682129 195.05887695 -354.80176758 194.41853516 -353.83837891 193.75878906 C-352.30963135 192.73350098 -352.30963135 192.73350098 -350.75 191.6875 C-348.62734204 190.23866521 -346.50495091 188.78943943 -344.3828125 187.33984375 C-342.7726123 186.24712158 -342.7726123 186.24712158 -341.12988281 185.13232422 C-336.59938124 182.0457875 -332.11063883 178.90121896 -327.625 175.75 C-326.80547852 175.17596436 -325.98595703 174.60192871 -325.14160156 174.01049805 C-319.22788086 169.86794259 -313.3278705 165.70617338 -307.43212891 161.53808594 C-301.1160884 157.07536103 -294.77926365 152.64259962 -288.44140625 148.2109375 C-283.11820565 144.48715773 -277.80455295 140.75028886 -272.5 137 C-265.49590239 132.04814271 -258.47110748 127.12636217 -251.44140625 122.2109375 C-246.11820565 118.48715773 -240.80455295 114.75028886 -235.5 111 C-228.49590239 106.04814271 -221.47110748 101.12636217 -214.44140625 96.2109375 C-209.11820565 92.48715773 -203.80455295 88.75028886 -198.5 85 C-192.34567034 80.64892383 -186.17677887 76.31914535 -180 72 C-173.70063742 67.59419222 -167.40689383 63.18068342 -161.125 58.75 C-160.09415283 58.02550659 -160.09415283 58.02550659 -159.04248047 57.28637695 C-155.64530089 54.89340788 -152.27383195 52.47333636 -148.9375 49.99609375 C-148.29409668 49.52268555 -147.65069336 49.04927734 -146.98779297 48.56152344 C-145.77719646 47.66856968 -144.57268273 46.76728875 -143.37548828 45.85644531 C-141.7578125 44.66796875 -141.7578125 44.66796875 -139 43 C-135.72203718 44.09265427 -135.14655375 44.74726301 -133.03710938 47.33398438 C-128.64012632 52.51119779 -123.84688005 57.26630137 -119.02885437 62.04631042 C-117.36886941 63.69333883 -115.71219765 65.34363952 -114.05627441 66.99475098 C-110.54034349 70.49934639 -107.02048047 73.99997555 -103.5 77.5 C-99.41507415 81.56119008 -95.33185107 85.62406294 -91.25285339 89.69120789 C-89.63373229 91.30392583 -88.01159216 92.91356218 -86.38928223 94.52307129 C-81.5639602 99.32468228 -76.85302014 104.17028951 -72.42562866 109.34729004 C-70.57415847 111.49367171 -68.60931373 113.50393677 -66.59765625 115.5 C-65.48100586 116.61181641 -65.48100586 116.61181641 -64.34179688 117.74609375 C-63.58962891 118.48988281 -62.83746094 119.23367187 -62.0625 120 C-61.28326172 120.77472656 -60.50402344 121.54945312 -59.70117188 122.34765625 C-57.8030758 124.23410757 -55.90266851 126.11816245 -54 128 C-50.7002584 126.41349427 -48.13090192 124.60383018 -45.3125 122.25 C-43.86423828 121.04730469 -43.86423828 121.04730469 -42.38671875 119.8203125 C-41.85095215 119.37333008 -41.31518555 118.92634766 -40.76318359 118.46582031 C-38.83438232 116.86231397 -36.89661304 115.27013546 -34.95703125 113.6796875 C-27.76922902 107.78387205 -20.61358928 101.85523989 -13.53173828 95.83251953 C-9.33671818 92.26971596 -5.08085722 88.78674425 -0.8125 85.3125 C2.31799666 82.73853608 5.41172461 80.12430914 8.5 77.5 C13.341844 73.38556918 18.23564252 69.34269561 23.1640625 65.33203125 C26.97670669 62.19684037 30.74073564 59.00586241 34.49804688 55.8046875 C35.99457994 54.53160166 37.49716979 53.26564613 39 52 C39.91007812 51.23300781 40.82015625 50.46601562 41.7578125 49.67578125 C44 48 44 48 46 48 C40.8693219 41.94902788 35.42155423 36.30180123 29.78515625 30.72265625 C28.92941513 29.87070175 28.07367401 29.01874725 27.19200134 28.14097595 C24.48459432 25.44569707 21.77395246 22.75370874 19.0625 20.0625 C15.46722966 16.49370951 11.8752073 12.92169616 8.28515625 9.34765625 C7.45403824 8.52483658 6.62292023 7.70201691 5.76661682 6.85426331 C5.00840134 6.09935104 4.25018585 5.34443878 3.46899414 4.56665039 C2.79727676 3.90016983 2.12555939 3.23368927 1.43348694 2.54701233 C0 1 0 1 0 0 Z " fill="#36B349" transform="translate(361,0)"/>
<path d="M0 0 C20.15753537 9.18812706 46.95157483 34.76847608 55.91139406 55.06451601 C63.38644241 75.25971476 61.20224028 99.11236508 60.28043018 120.21429859 C59.90713425 129.00255129 59.83855093 137.78681891 59.78084532 146.5818669 C59.67043095 162.25042748 59.33456845 177.90510441 58.84741211 193.56616211 C58.37598793 208.73767669 58.01668607 223.90536093 57.80151367 239.08276367 C57.78811477 240.02520336 57.77471588 240.96764305 57.76091095 241.93864151 C57.69433231 246.66871862 57.62988844 251.39882196 57.56650388 256.12894285 C57.04156637 295.09831959 56.10376625 334.04187918 55 373 C13.75 373 -27.5 373 -70 373 C-70.24252547 333.02400132 -70.44561978 293.04869671 -70.56171862 253.07217282 C-70.57547631 248.352069 -70.58971387 243.63196673 -70.60424805 238.91186523 C-70.60713346 237.97218238 -70.61001888 237.03249952 -70.61299173 236.06434142 C-70.66084981 220.85120855 -70.74757594 205.63853316 -70.84868076 190.42567164 C-70.9515668 174.81453542 -71.01265042 159.20363869 -71.03497344 143.59217733 C-71.05006343 133.95961597 -71.09771025 124.32834762 -71.18708114 114.69618433 C-71.24525164 108.08998881 -71.26279624 101.48446117 -71.24851515 94.87802816 C-71.24147197 91.06650007 -71.25222076 87.25722992 -71.31126022 83.44610405 C-71.37487142 79.30956799 -71.35284701 75.1778235 -71.32279968 71.04090881 C-71.35484094 69.84147567 -71.38688219 68.64204253 -71.4198944 67.40626293 C-71.3194441 62.29150374 -71.09314082 59.2279052 -67.61508524 55.32106864 C-64.83406664 53.02732021 -61.99666212 50.99989247 -59 49 C-57.54061952 47.83247485 -56.09207224 46.65100506 -54.6640625 45.4453125 C-53.99906738 44.8989917 -53.33407227 44.3526709 -52.64892578 43.78979492 C-46.23726774 38.51583881 -39.85600922 33.21096019 -33.53173828 27.83251953 C-29.34446853 24.27629828 -25.09676614 20.79942113 -20.8359375 17.33203125 C-17.02329331 14.19684037 -13.25926436 11.00586241 -9.50195312 7.8046875 C-6.37744393 5.14669849 -3.21649748 2.5458993 0 0 Z " fill="#37B34A" transform="translate(457,139)"/>
<path d="M0 0 C28.96174415 0 28.96174415 0 37.304245 8.33288574 C38.38536021 9.54346639 39.46489908 10.75545638 40.54296875 11.96875 C41.73877604 13.21072642 42.94053521 14.44699609 44.14778137 15.67785645 C47.2726662 18.89513502 50.31123478 22.18262746 53.33673096 25.49316406 C56.42365881 28.84039843 59.58936542 32.11128633 62.74804688 35.390625 C71.21308988 44.21745374 79.56733748 53.13693043 87.57591248 62.38220215 C89.50964721 64.57897155 91.54447524 66.65728929 93.62109375 68.71875 C94.41064453 69.50507813 95.20019531 70.29140625 96.01367188 71.1015625 C96.81353516 71.89304687 97.61339844 72.68453125 98.4375 73.5 C99.67790039 74.73363281 99.67790039 74.73363281 100.94335938 75.9921875 C102.95994959 77.99712113 104.97885236 79.99966253 107 82 C111.76094675 79.74945129 115.3647416 76.41213805 119.34375 72.99609375 C122 71 122 71 126 70 C126 154.48 126 238.96 126 326 C84.42 326 42.84 326 0 326 C0 218.42 0 110.84 0 0 Z " fill="#278236" transform="translate(193,186)"/>
<path d="M0 0 C41.25 0 82.5 0 125 0 C125 72.93 125 145.86 125 221 C83.75 221 42.5 221 0 221 C0 148.07 0 75.14 0 0 Z " fill="#014C41" transform="translate(0,291)"/>
</svg>
